<svg xmlns="http://www.w3.org/2000/svg" xmlns:xlink="http://www.w3.org/1999/xlink" width="375" viewBox="0 0 375 375" height="375" version="1.0"><defs><clipPath id="a"><path d="M 177 73 L 265 73 L 265 216 L 177 216 Z M 177 73"/></clipPath><clipPath id="b"><path d="M 110.957031 73.183594 L 263.957031 72.828125 L 264.289062 216.078125 L 111.289062 216.433594 Z M 110.957031 73.183594"/></clipPath><clipPath id="c"><path d="M 110.957031 73.179688 L 263.957031 72.828125 L 264.289062 216.074219 L 111.289062 216.429688 Z M 110.957031 73.179688"/></clipPath><clipPath id="d"><path d="M 111 74 L 198 74 L 198 216 L 111 216 Z M 111 74"/></clipPath><clipPath id="e"><path d="M 110.957031 73.183594 L 263.957031 72.828125 L 264.289062 216.078125 L 111.289062 216.433594 Z M 110.957031 73.183594"/></clipPath><clipPath id="f"><path d="M 110.957031 73.179688 L 263.957031 72.828125 L 264.289062 216.074219 L 111.289062 216.429688 Z M 110.957031 73.179688"/></clipPath><g id="g"><path d="M 27.253906 -33.375 L 27.253906 -11.292969 L 10.847656 -33.375 L 3.28125 -33.375 L 3.28125 0 L 10.625 0 L 10.625 -22.136719 L 26.976562 0 L 34.542969 0 L 34.542969 -33.375 Z M 27.253906 -33.375"/></g><g id="h"><path d="M 13.238281 0.445312 C 19.96875 0.445312 23.695312 -3.058594 23.695312 -8.511719 L 23.695312 -22.25 L 16.632812 -22.25 L 16.632812 -9.457031 C 16.632812 -7.34375 15.183594 -5.839844 13.238281 -5.839844 C 11.347656 -5.839844 9.902344 -7.34375 9.902344 -9.457031 L 9.902344 -22.25 L 2.78125 -22.25 L 2.78125 -8.511719 C 2.78125 -3.058594 6.507812 0.445312 13.238281 0.445312 Z M 13.238281 0.445312"/></g><g id="i"><path d="M 16.742188 -22.695312 C 14.183594 -22.695312 11.957031 -21.46875 10.402344 -19.523438 L 10.402344 -22.25 L 3.28125 -22.25 L 3.28125 0 L 10.402344 0 L 10.402344 -12.902344 C 10.402344 -14.90625 12.070312 -16.410156 14.128906 -16.410156 C 16.1875 -16.410156 17.632812 -14.90625 17.632812 -12.902344 L 17.632812 0 L 24.695312 0 L 24.695312 -14.074219 C 24.695312 -18.96875 21.136719 -22.695312 16.742188 -22.695312 Z M 16.742188 -22.695312"/></g><g id="j"><path d="M 16.6875 -16.742188 L 16.6875 -22.25 L 11.402344 -22.25 L 11.402344 -30.816406 L 4.339844 -30.816406 L 4.339844 -22.25 L 0.613281 -22.25 L 0.613281 -16.742188 L 4.339844 -16.742188 L 4.339844 -7.953125 C 4.339844 -3.226562 8.34375 0.445312 13.070312 0.445312 C 14.574219 0.445312 16.074219 0.109375 16.632812 -0.277344 L 16.632812 -5.785156 L 13.960938 -5.785156 C 12.460938 -5.785156 11.402344 -6.953125 11.402344 -8.789062 L 11.402344 -16.742188 Z M 16.6875 -16.742188"/></g><g id="k"><path d="M 6.953125 -25.976562 C 9.066406 -25.976562 10.847656 -27.753906 10.847656 -29.867188 C 10.847656 -32.039062 9.066406 -33.761719 6.953125 -33.761719 C 4.839844 -33.761719 3.058594 -32.039062 3.058594 -29.867188 C 3.058594 -27.753906 4.839844 -25.976562 6.953125 -25.976562 Z M 3.394531 0 L 10.457031 0 L 10.457031 -22.25 L 3.394531 -22.25 Z M 3.394531 0"/></g><g id="l"><path d="M 29.8125 -22.695312 C 26.644531 -22.695312 24.195312 -21.246094 22.804688 -18.800781 C 21.527344 -21.136719 19.300781 -22.695312 16.464844 -22.695312 C 13.90625 -22.695312 11.847656 -21.46875 10.402344 -19.523438 L 10.402344 -22.25 L 3.28125 -22.25 L 3.28125 0 L 10.402344 0 L 10.402344 -12.902344 C 10.402344 -14.515625 11.402344 -16.410156 13.570312 -16.410156 C 15.519531 -16.410156 16.796875 -14.851562 16.796875 -12.902344 L 16.796875 0 L 23.917969 0 L 23.917969 -12.902344 C 23.917969 -14.515625 24.917969 -16.410156 27.085938 -16.410156 C 29.035156 -16.410156 30.371094 -14.851562 30.371094 -12.902344 L 30.371094 0 L 37.433594 0 L 37.433594 -14.074219 C 37.433594 -19.246094 34.707031 -22.695312 29.8125 -22.695312 Z M 29.8125 -22.695312"/></g></defs><g clip-path="url(#a)"><g clip-path="url(#b)"><g clip-path="url(#c)"><path fill="#38B6FF" d="M 205.839844 130.320312 C 205.84375 130.320312 205.84375 130.320312 205.84375 130.320312 C 206.765625 130.316406 207.507812 131.058594 207.511719 131.972656 C 207.511719 131.980469 207.507812 131.984375 207.507812 131.992188 L 207.59375 168.398438 C 207.59375 168.40625 207.558594 151.847656 207.558594 151.851562 L 207.636719 186.042969 C 207.671875 201.023438 219.023438 214.101562 234.035156 215.070312 C 250.496094 216.128906 264.214844 203.074219 264.179688 186.90625 L 263.980469 102.03125 C 263.945312 86.777344 251.710938 74.101562 236.394531 73.941406 C 203.957031 73.609375 177.503906 99.832031 177.578125 132.042969 L 177.609375 146.597656 C 177.613281 146.941406 178.050781 147.042969 178.214844 146.742188 C 183.566406 136.996094 193.921875 130.351562 205.839844 130.320312 Z M 205.839844 130.320312"/></g></g></g><g clip-path="url(#d)"><g clip-path="url(#e)"><g clip-path="url(#f)"><path fill="#FFF" d="M 167.742188 157.3125 L 167.671875 127.5 L 167.617188 103.242188 C 167.582031 88.257812 156.226562 75.179688 141.210938 74.21875 C 124.75 73.160156 111.039062 86.222656 111.074219 102.382812 L 111.273438 187.257812 C 111.308594 202.515625 123.542969 215.191406 138.855469 215.347656 C 171.292969 215.683594 197.75 189.460938 197.675781 157.246094 L 197.640625 142.691406 C 197.640625 142.347656 197.207031 142.242188 197.039062 142.542969 C 191.679688 152.300781 181.304688 158.953125 169.371094 158.96875 C 168.472656 158.96875 167.746094 158.210938 167.742188 157.3125 Z M 167.742188 157.3125"/></g></g></g><g fill="#38B6FF"><use x="94.948" y="269.509" xmlns:xlink="http://www.w3.org/1999/xlink" xlink:href="#g" xlink:type="simple" xlink:actuate="onLoad" xlink:show="embed"/></g><g fill="#38B6FF"><use x="131.936" y="269.509" xmlns:xlink="http://www.w3.org/1999/xlink" xlink:href="#h" xlink:type="simple" xlink:actuate="onLoad" xlink:show="embed"/></g><g fill="#38B6FF"><use x="157.576" y="269.509" xmlns:xlink="http://www.w3.org/1999/xlink" xlink:href="#i" xlink:type="simple" xlink:actuate="onLoad" xlink:show="embed"/></g><g fill="#38B6FF"><use x="184.218" y="269.509" xmlns:xlink="http://www.w3.org/1999/xlink" xlink:href="#j" xlink:type="simple" xlink:actuate="onLoad" xlink:show="embed"/></g><g fill="#38B6FF"><use x="201.127" y="269.509" xmlns:xlink="http://www.w3.org/1999/xlink" xlink:href="#k" xlink:type="simple" xlink:actuate="onLoad" xlink:show="embed"/></g><g fill="#38B6FF"><use x="214.142" y="269.509" xmlns:xlink="http://www.w3.org/1999/xlink" xlink:href="#h" xlink:type="simple" xlink:actuate="onLoad" xlink:show="embed"/></g><g fill="#38B6FF"><use x="239.783" y="269.509" xmlns:xlink="http://www.w3.org/1999/xlink" xlink:href="#l" xlink:type="simple" xlink:actuate="onLoad" xlink:show="embed"/></g></svg>